# xmcd CD database file
#
# Track frame offsets:
#	150
#	15577
#	30123
#	48664
#	61180
#	77751
#	90344
#	110758
#	130511
#	142779
#	160908
#	182132
#	201874
#	213558
#	227396
#	247448
#	263603
#	280170
#	299496
#	315155
#	330993
#	342436
#
# Disc length: 4706 seconds
#
# Revision: 0
# Processed by: cddbd v1.5.1PL0 Copyright (c) Steve Scherf et al.
# Submitted via: CDex 1.51
#
DISCID=2d126016
DTITLE=Various Artist - Working man's blues
DYEAR=2004
DGENRE=Blues
TTITLE0=Albert King - Born under a bad sign
TTITLE1=ZZ Hill - What am I gonna tell her
TTITLE2=Swamp Dogg - Mama's baby Daddy's maybe
TTITLE3=Sonny Terry and Brownie McGee - Working man's blues
TTITLE4=Johnny Adams - Reconsider me
TTITLE5=Willie West - I sleep with the blues
TTITLE6=Robert Gray - I'd rather be a wino
TTITLE7=Little Milton - Room 244
TTITLE8=Memphis Slim - Whiskey and Gin blues
TTITLE9=Johnnie Taylor - You knocked my heart out of line
TTITLE10=Ernie Johnson - Cold this winter
TTITLE11=James Peterson - Don't let the devil ride
TTITLE12=McKinley Mitchell - No love like your love
TTITLE13=Willie Cobbs - You don't love me
TTITLE14=Latimore /Bad risk
TTITLE15=ZZ Hill - Cheating in the next room
TTITLE16=Keri Leigh - Here's your mop Mr. Johnson
TTITLE17=Artie White - Your man is home tonight
TTITLE18=Little Milton - Big boned woman
TTITLE19=McKinley Mitchell - Trouble blues
TTITLE20=Joe August - Everything happens at night
TTITLE21=Harlan Griffiths - Looking for my pig
EXTD=YEAR: 2004
EXTT0=
EXTT1=
EXTT2=
EXTT3=
EXTT4=
EXTT5=
EXTT6=
EXTT7=
EXTT8=
EXTT9=
EXTT10=
EXTT11=
EXTT12=
EXTT13=
EXTT14=
EXTT15=
EXTT16=
EXTT17=
EXTT18=
EXTT19=
EXTT20=
EXTT21=
PLAYORDER=
